# xmcd
#
# Track frame offsets:
#	150
#	11959
#	25228
#	38162
#	50440
#	60882
#	74171
#	85281
#	95741
#	109094
#	126109
#	137527
#
# Disc length: 2009 seconds
#
# Revision: 0
# Processed by: cddbd v1.5.2PL0 Copyright (c) Steve Scherf et al.
# Submitted via: dBpowerAMP V4.0
#
DISCID=a507d70c
DTITLE=The Louvin Brothers - Tragic Songs Of Life
DYEAR=1956
DGENRE=Country
TTITLE0=Kentucky
TTITLE1=I'll Be All Smiles Tonight
TTITLE2=Let Her Go, God Bless Her
TTITLE3=What Is Home Without Love
TTITLE4=A Tiny Broken Heart
TTITLE5=In The Pines
TTITLE6=Alabama
TTITLE7=Katie Dear
TTITLE8=My Brother's Will
TTITLE9=Knoxville Girl
TTITLE10=Take The News To Mother
TTITLE11=Mary Of The Wild Moor
EXTD=
EXTT0=
EXTT1=
EXTT2=
EXTT3=
EXTT4=
EXTT5=
EXTT6=
EXTT7=
EXTT8=
EXTT9=
EXTT10=
EXTT11=
PLAYORDER=
